<?xml version="1.0" encoding="UTF-8"?>
<svg width="114px" height="32px" viewBox="0 0 114 32" version="1.1" xmlns="http://www.w3.org/2000/svg">
    <!-- Generator: Sketch 46.2 (44496) - http://www.bohemiancoding.com/sketch -->
    <title>upfeat-logo copy</title>
    <desc>Created with Sketch.</desc>
    <defs></defs>
    <g id="Symbols" stroke="none" stroke-width="1" fill="none" fill-rule="evenodd">
        <g id="upfeat-logo-copy" fill="#000000">
            <g id="upfeat-logo" transform="translate(-5.000000, -6.000000)">
                <path d="M54.014,28 L54.014,14.558 L50.322,14.558 L50.322,21.604 C50.322,22.9733402 50.0966689,23.956997 49.646,24.555 C49.1953311,25.153003 48.4673384,25.452 47.462,25.452 C46.5779956,25.452 45.9626684,25.1790027 45.616,24.633 C45.2693316,24.0869973 45.096,23.2593389 45.096,22.15 L45.096,14.558 L41.404,14.558 L41.404,22.826 C41.404,23.6580042 41.4776659,24.4163299 41.625,25.101 C41.7723341,25.7856701 42.0279982,26.366331 42.392,26.843 C42.7560018,27.3196691 43.2543302,27.6879987 43.887,27.948 C44.5196698,28.2080013 45.3299951,28.338 46.318,28.338 C47.0980039,28.338 47.8606629,28.1646684 48.606,27.818 C49.3513371,27.4713316 49.9579977,26.9080039 50.426,26.128 L50.504,26.128 L50.504,28 L54.014,28 Z M63.608,25.582 C64.2146697,25.582 64.7216646,25.4606679 65.129,25.218 C65.5363354,24.9753321 65.8656654,24.659002 66.117,24.269 C66.3683346,23.8789981 66.5459995,23.4240026 66.65,22.904 C66.7540005,22.3839974 66.806,21.855336 66.806,21.318 C66.806,20.780664 66.7496672,20.2520026 66.637,19.732 C66.5243328,19.2119974 66.3380013,18.7483354 66.078,18.341 C65.8179987,17.9336646 65.4843354,17.6043346 65.077,17.353 C64.6696646,17.1016654 64.1713363,16.976 63.582,16.976 C62.9753303,16.976 62.4683354,17.1016654 62.061,17.353 C61.6536646,17.6043346 61.3243346,17.9293313 61.073,18.328 C60.8216654,18.7266687 60.6440005,19.1859974 60.54,19.706 C60.4359995,20.2260026 60.384,20.7633306 60.384,21.318 C60.384,21.855336 60.4403328,22.3839974 60.553,22.904 C60.6656672,23.4240026 60.8476654,23.8789981 61.099,24.269 C61.3503346,24.659002 61.6839979,24.9753321 62.1,25.218 C62.5160021,25.4606679 63.0186637,25.582 63.608,25.582 Z M56.822,14.558 L60.332,14.558 L60.332,16.274 L60.384,16.274 C60.8346689,15.5459964 61.4066632,15.017335 62.1,14.688 C62.7933368,14.358665 63.5559958,14.194 64.388,14.194 C65.4453386,14.194 66.3553295,14.3933313 67.118,14.792 C67.8806705,15.1906687 68.5133308,15.71933 69.016,16.378 C69.5186692,17.03667 69.8913321,17.8036623 70.134,18.679 C70.3766679,19.5543377 70.498,20.4686619 70.498,21.422 C70.498,22.3233378 70.3766679,23.1899958 70.134,24.022 C69.8913321,24.8540042 69.5230025,25.5906635 69.029,26.232 C68.5349975,26.8733365 67.9196703,27.3846648 67.183,27.766 C66.4463296,28.1473352 65.5840049,28.338 64.596,28.338 C63.7639958,28.338 62.9970035,28.1690017 62.295,27.831 C61.5929965,27.4929983 61.0166689,26.99467 60.566,26.336 L60.514,26.336 L60.514,32.706 L56.822,32.706 L56.822,14.558 Z M73.514,17.028 L73.514,28 L77.206,28 L77.206,17.028 L79.754,17.028 L79.754,14.558 L77.206,14.558 L77.206,13.752 C77.206,13.1973306 77.3143323,12.8030012 77.531,12.569 C77.7476678,12.3349988 78.1073308,12.218 78.61,12.218 C79.0780023,12.218 79.5286645,12.2439997 79.962,12.296 L79.962,9.54 C79.6499984,9.52266658 79.329335,9.50100013 79,9.475 C78.670665,9.44899987 78.341335,9.436 78.012,9.436 C76.5039925,9.436 75.3773371,9.81732952 74.632,10.58 C73.8866629,11.3426705 73.514,12.321994 73.514,13.518 L73.514,14.558 L71.304,14.558 L71.304,17.028 L73.514,17.028 Z M90.414,19.836 C90.2406658,18.8999953 89.9330022,18.1893358 89.491,17.704 C89.0489978,17.2186642 88.3773378,16.976 87.476,16.976 C86.8866637,16.976 86.397002,17.0756657 86.007,17.275 C85.6169981,17.4743343 85.3050012,17.7213319 85.071,18.016 C84.8369988,18.3106681 84.6723338,18.622665 84.577,18.952 C84.4816662,19.281335 84.4253334,19.5759987 84.408,19.836 L90.414,19.836 Z M84.408,22.176 C84.4600003,23.372006 84.7633306,24.238664 85.318,24.776 C85.8726694,25.313336 86.6699948,25.582 87.71,25.582 C88.4553371,25.582 89.096664,25.3956685 89.634,25.023 C90.171336,24.6503315 90.5006661,24.2560021 90.622,23.84 L93.872,23.84 C93.3519974,25.4520081 92.554672,26.6046632 91.48,27.298 C90.405328,27.9913368 89.105341,28.338 87.58,28.338 C86.5226614,28.338 85.5693376,28.1690017 84.72,27.831 C83.8706624,27.4929983 83.1513363,27.0120031 82.562,26.388 C81.9726637,25.7639969 81.5176683,25.018671 81.197,24.152 C80.8763317,23.285329 80.716,22.3320052 80.716,21.292 C80.716,20.2866616 80.880665,19.350671 81.21,18.484 C81.539335,17.617329 82.0073303,16.8676698 82.614,16.235 C83.2206697,15.6023302 83.9443291,15.1040018 84.785,14.74 C85.6256709,14.3759982 86.5573282,14.194 87.58,14.194 C88.7240057,14.194 89.7206624,14.4149978 90.57,14.857 C91.4193376,15.2990022 92.1169973,15.8926629 92.663,16.638 C93.2090027,17.3833371 93.6033321,18.2326619 93.846,19.186 C94.0886679,20.1393381 94.1753337,21.1359948 94.106,22.176 L84.408,22.176 Z M96.134,18.692 C96.1860003,17.825329 96.4026648,17.1060029 96.784,16.534 C97.1653352,15.9619971 97.6506637,15.5026684 98.24,15.156 C98.8293363,14.8093316 99.4923296,14.5623341 100.229,14.415 C100.96567,14.2676659 101.706663,14.194 102.452,14.194 C103.128003,14.194 103.812663,14.2416662 104.506,14.337 C105.199337,14.4323338 105.831997,14.6186653 106.404,14.896 C106.976003,15.1733347 107.443998,15.5589975 107.808,16.053 C108.172002,16.5470025 108.354,17.2013293 108.354,18.016 L108.354,25.01 C108.354,25.6166697 108.388666,26.1973306 108.458,26.752 C108.527334,27.3066694 108.648666,27.7226653 108.822,28 L105.078,28 C105.008666,27.791999 104.952334,27.5796678 104.909,27.363 C104.865666,27.1463323 104.835333,26.9253345 104.818,26.7 C104.228664,27.3066697 103.535337,27.7313321 102.738,27.974 C101.940663,28.2166679 101.126004,28.338 100.294,28.338 C99.6526635,28.338 99.0546694,28.2600008 98.5,28.104 C97.9453306,27.9479992 97.4600021,27.705335 97.044,27.376 C96.6279979,27.046665 96.3030012,26.6306692 96.069,26.128 C95.8349988,25.6253308 95.718,25.0273368 95.718,24.334 C95.718,23.5713295 95.852332,22.9430025 96.121,22.449 C96.389668,21.9549975 96.7363312,21.5606681 97.161,21.266 C97.5856688,20.9713319 98.0709973,20.7503341 98.617,20.603 C99.1630027,20.4556659 99.7133306,20.3386671 100.268,20.252 C100.822669,20.1653329 101.368664,20.0960003 101.906,20.044 C102.443336,19.9919997 102.919998,19.9140005 103.336,19.81 C103.752002,19.7059995 104.081332,19.5543343 104.324,19.355 C104.566668,19.1556657 104.679333,18.8653352 104.662,18.484 C104.662,18.0853313 104.597001,17.7690012 104.467,17.535 C104.336999,17.3009988 104.163668,17.1190007 103.947,16.989 C103.730332,16.8589994 103.479001,16.7723336 103.193,16.729 C102.906999,16.6856665 102.599335,16.664 102.27,16.664 C101.541996,16.664 100.970002,16.8199984 100.554,17.132 C100.137998,17.4440016 99.8953337,17.9639964 99.826,18.692 L96.134,18.692 Z M104.662,21.422 C104.505999,21.5606674 104.311001,21.6689996 104.077,21.747 C103.842999,21.8250004 103.591668,21.8899997 103.323,21.942 C103.054332,21.9940003 102.772668,22.0373332 102.478,22.072 C102.183332,22.1066668 101.888668,22.1499997 101.594,22.202 C101.316665,22.2540003 101.043668,22.3233329 100.775,22.41 C100.506332,22.4966671 100.272334,22.6136659 100.073,22.761 C99.8736657,22.9083341 99.7133339,23.0946655 99.592,23.32 C99.4706661,23.5453345 99.41,23.8313316 99.41,24.178 C99.41,24.507335 99.4706661,24.7846655 99.592,25.01 C99.7133339,25.2353345 99.877999,25.4129994 100.086,25.543 C100.294001,25.6730007 100.536665,25.7639997 100.814,25.816 C101.091335,25.8680003 101.377332,25.894 101.672,25.894 C102.400004,25.894 102.963331,25.7726679 103.362,25.53 C103.760669,25.2873321 104.055332,24.9970017 104.246,24.659 C104.436668,24.3209983 104.553666,23.9786684 104.597,23.632 C104.640334,23.2853316 104.662,23.008001 104.662,22.8 L104.662,21.422 Z M115.894,14.558 L115.894,10.528 L112.202,10.528 L112.202,14.558 L109.966,14.558 L109.966,17.028 L112.202,17.028 L112.202,24.958 C112.202,25.6340034 112.314666,26.1799979 112.54,26.596 C112.765334,27.0120021 113.072998,27.3326655 113.463,27.558 C113.853002,27.7833345 114.303664,27.9349996 114.815,28.013 C115.326336,28.0910004 115.867997,28.13 116.44,28.13 C116.804002,28.13 117.176665,28.1213334 117.558,28.104 C117.939335,28.0866666 118.285998,28.0520003 118.598,28 L118.598,25.14 C118.424666,25.1746668 118.242668,25.2006666 118.052,25.218 C117.861332,25.2353334 117.662001,25.244 117.454,25.244 C116.829997,25.244 116.414001,25.140001 116.206,24.932 C115.997999,24.723999 115.894,24.3080031 115.894,23.684 L115.894,17.028 L118.598,17.028 L118.598,14.558 L115.894,14.558 Z" id="upfeat"></path>
                <path d="M34.5312229,20.7812229 C34.5312229,22.7135242 34.1666432,24.5318654 33.4374729,26.236301 C32.7083026,27.9407367 31.7102657,29.4263989 30.4433323,30.6933323 C29.1763989,31.9602657 27.6907367,32.9583026 25.986301,33.6874729 C24.2818654,34.4166432 22.4635242,34.7812229 20.5312229,34.7812229 C18.5989216,34.7812229 16.7805804,34.4166432 15.0761448,33.6874729 C13.3717092,32.9583026 11.886047,31.9602657 10.6191135,30.6933323 C9.35218013,29.4263989 8.35414323,27.9407367 7.62497292,26.236301 C6.89580261,24.5318654 6.53122292,22.7135242 6.53122292,20.7812229 C6.53122292,18.8489216 6.89580261,17.0305804 7.62497292,15.3261448 C8.35414323,13.6217092 9.35218013,12.136047 10.6191135,10.8691135 C11.886047,9.60218013 13.3717092,8.60414323 15.0761448,7.87497292 C16.7805804,7.14580261 18.5989216,6.78122292 20.5312229,6.78122292 C22.4635242,6.78122292 24.2818654,7.14580261 25.986301,7.87497292 C27.6907367,8.60414323 29.1763989,9.60218013 30.4433323,10.8691135 C31.7102657,12.136047 32.7083026,13.6217092 33.4374729,15.3261448 C34.1666432,17.0305804 34.5312229,18.8489216 34.5312229,20.7812229 Z M8.25387917,20.7812229 C8.25387917,22.4765439 8.57744364,24.0670228 9.2245823,25.5527073 C9.87172095,27.0383918 10.7512694,28.3326497 11.8632542,29.4355198 C12.9752389,30.5383899 14.274054,31.4133811 15.7597385,32.0605198 C17.2454231,32.7076584 18.8359019,33.0312229 20.5312229,33.0312229 C22.2265439,33.0312229 23.8170228,32.7076584 25.3027073,32.0605198 C26.7883918,31.4133811 28.0826497,30.5383899 29.1855198,29.4355198 C30.2883899,28.3326497 31.1633811,27.0383918 31.8105198,25.5527073 C32.4576584,24.0670228 32.7812229,22.4765439 32.7812229,20.7812229 C32.7812229,19.0859019 32.4576584,17.4954231 31.8105198,16.0097385 C31.1633811,14.524054 30.2883899,13.2297961 29.1855198,12.126926 C28.0826497,11.0240559 26.7883918,10.1490647 25.3027073,9.50192605 C23.8170228,8.85478739 22.2265439,8.53122292 20.5312229,8.53122292 C18.8359019,8.53122292 17.2454231,8.85478739 15.7597385,9.50192605 C14.274054,10.1490647 12.9752389,11.0240559 11.8632542,12.126926 C10.7512694,13.2297961 9.87172095,14.524054 9.2245823,16.0097385 C8.57744364,17.4954231 8.25387917,19.0859019 8.25387917,20.7812229 Z M21.4062229,26.9062229 C21.4062229,27.1614325 21.3241925,27.3710658 21.1601292,27.5351292 C20.9960658,27.6991925 20.7864325,27.7812229 20.5312229,27.7812229 C20.2942426,27.7812229 20.0891665,27.6991925 19.9159885,27.5351292 C19.7428106,27.3710658 19.6562229,27.1614325 19.6562229,26.9062229 L19.6562229,17.0077854 L16.4570042,20.2343479 C16.2747116,20.3984112 16.0650783,20.4804417 15.8280979,20.4804417 C15.5911176,20.4804417 15.3814842,20.3984112 15.1991917,20.2343479 C15.1262746,20.1432016 15.0670304,20.0429422 15.0214573,19.9335667 C14.9758842,19.8241911 14.9530979,19.7148172 14.9530979,19.6054417 C14.9530979,19.4960661 14.9758842,19.3866922 15.0214573,19.2773167 C15.0670304,19.1679411 15.1262746,19.0676817 15.1991917,18.9765354 L20.5038792,13.8085667 L25.8085667,18.9765354 C25.9908592,19.158828 26.0820042,19.3684613 26.0820042,19.6054417 C26.0820042,19.842422 25.9908592,20.0520553 25.8085667,20.2343479 C25.6445033,20.3984112 25.4394273,20.4804417 25.1933323,20.4804417 C24.9472373,20.4804417 24.7421612,20.3984112 24.5780979,20.2343479 L21.4062229,17.0624729 L21.4062229,26.9062229 Z" id="Arrow-up-circle---simple-line-icons" transform="translate(20.531223, 20.781223) rotate(-315.000000) translate(-20.531223, -20.781223) "></path>
            </g>
        </g>
    </g>
</svg>
